<svg width="49" height="33" viewBox="0 0 49 33" fill="none" xmlns="http://www.w3.org/2000/svg">
<path d="M4.38958 0.815914C4.0806 0.816292 3.77163 0.818334 3.46267 0.82204C3.15642 0.832248 2.84404 0.848581 2.53983 0.903706C2.08009 0.97636 1.64417 1.15713 1.26792 1.43115C0.891684 1.70516 0.585878 2.0646 0.375667 2.47987C0.23275 2.76162 0.142917 3.04746 0.0898333 3.35779C0.0326667 3.65996 0.0142917 3.97029 0.00816667 4.27654C0.00398699 4.41874 0.00126462 4.56099 0 4.70325L0 28.2988C0 28.4417 0.00408333 28.5805 0.006125 28.7214C0.0142917 29.0277 0.0326667 29.34 0.0877917 29.6442C0.142917 29.9505 0.234792 30.2384 0.377708 30.5201C0.659243 31.0744 1.10968 31.5248 1.66396 31.8064C1.94571 31.9493 2.23154 32.0412 2.54188 32.0963C2.84404 32.1514 3.15438 32.1698 3.46063 32.178L3.88529 32.1841H45.1147L45.5373 32.178C45.8436 32.1698 46.156 32.1514 46.4602 32.0963C46.7664 32.0412 47.0543 31.9513 47.334 31.8084C47.8897 31.5272 48.341 31.0758 48.6223 30.5201C48.7652 30.2384 48.8571 29.9525 48.9102 29.6422C48.9653 29.34 48.9837 29.0297 48.9918 28.7234C48.9959 28.5805 48.998 28.4417 48.998 28.2988L49 27.7965V4.70121C49 4.55829 48.9959 4.41946 48.9918 4.27858C48.988 3.96935 48.9607 3.66085 48.9102 3.35575C48.8125 2.74091 48.5229 2.1727 48.0829 1.73231C47.6429 1.29192 47.0749 1.0019 46.4602 0.903706C46.155 0.853395 45.8466 0.826096 45.5373 0.82204C45.2291 0.813314 44.9208 0.811271 44.6125 0.815914H4.38958ZM4.38958 1.86125H45.1045C45.2393 1.86125 45.372 1.86533 45.5067 1.86737C45.7415 1.87554 46.0171 1.88779 46.2723 1.93271C46.4949 1.97354 46.6807 2.03479 46.8583 2.12462C47.2164 2.30642 47.5075 2.59744 47.6893 2.95558C47.7828 3.14066 47.8475 3.33895 47.8812 3.54358C47.9261 3.7947 47.9383 4.07033 47.9445 4.30716C47.9485 4.43987 47.9506 4.57258 47.9506 4.70937V28.2947C47.9506 28.4274 47.9506 28.5601 47.9445 28.6949C47.9383 28.9297 47.9261 29.2053 47.8791 29.4605C47.835 29.7609 47.7191 30.0463 47.5415 30.2926C47.3638 30.5388 47.1295 30.7387 46.8583 30.8754C46.6744 30.9684 46.4776 31.0331 46.2744 31.0673C46.0224 31.1073 45.7679 31.1292 45.5128 31.1326L45.1045 31.1387H3.89142C3.75667 31.1387 3.61988 31.1347 3.49125 31.1326C3.2348 31.1293 2.97893 31.1075 2.72563 31.0673C2.50308 31.0265 2.31729 30.9652 2.13763 30.8754C1.77948 30.6943 1.48892 30.403 1.30871 30.0444C1.21542 29.8592 1.15072 29.661 1.11679 29.4564C1.07624 29.2045 1.05441 28.95 1.05146 28.6949C1.04872 28.5608 1.04736 28.4267 1.04738 28.2927V4.70733C1.04738 4.57462 1.04737 4.43987 1.05146 4.30512C1.05963 4.07237 1.07187 3.79879 1.11679 3.5395C1.15763 3.319 1.21888 3.1332 1.30871 2.95354C1.49062 2.59599 1.78167 2.30566 2.13967 2.12462C2.3245 2.03221 2.52194 1.96754 2.72563 1.93271C2.98083 1.88779 3.25646 1.8735 3.49125 1.86737C3.62396 1.86329 3.75871 1.86329 3.89142 1.86125H4.38958ZM14.0058 9.41541C13.3933 9.44808 12.642 9.8217 12.2092 10.3464C11.8192 10.7956 11.4742 11.5306 11.564 12.2207C12.2541 12.2819 12.9421 11.8756 13.377 11.3672C13.7955 10.8405 14.0814 10.1361 14.0058 9.41745V9.41541ZM18.5118 10.2729V21.4878H20.2513V17.6556H22.6605C24.8614 17.6556 26.4069 16.1468 26.4069 13.9561C26.4069 11.7715 24.892 10.2709 22.7156 10.2709L18.5118 10.2729ZM20.2513 11.7409H22.2562C23.765 11.7409 24.6266 12.5494 24.6266 13.9642C24.6266 15.3771 23.765 16.1937 22.2501 16.1937H20.2513V11.7409ZM13.8119 12.3534C12.8931 12.3738 12.1173 12.925 11.6681 12.925C11.1883 12.925 10.4574 12.386 9.66525 12.4003C9.14995 12.4132 8.647 12.5607 8.20643 12.8283C7.76585 13.0959 7.40301 13.4741 7.154 13.9255C6.07804 15.7793 6.87021 18.5294 7.91758 20.0402C8.42596 20.7875 9.03846 21.6103 9.84492 21.5797C10.6065 21.5511 10.9066 21.0856 11.8315 21.0856C12.7584 21.0856 13.0279 21.5797 13.8323 21.5654C14.6694 21.5511 15.1941 20.8181 15.7004 20.0688C16.2843 19.2175 16.5232 18.3947 16.5375 18.3518C16.5232 18.3355 14.9246 17.723 14.9103 15.8834C14.894 14.344 16.1659 13.611 16.2251 13.5661C15.5065 12.5045 14.3876 12.386 13.9997 12.3554C13.9372 12.3515 13.8745 12.3501 13.8119 12.3513V12.3534ZM30.5617 13.1639C28.5405 13.1639 27.2828 14.2521 27.1889 15.7282H28.7753C28.9223 14.9973 29.5286 14.5318 30.5005 14.5318C31.5254 14.5318 32.1399 15.0749 32.1399 15.9835V16.6143L29.9002 16.745C27.9586 16.8552 26.8622 17.7332 26.8622 19.1623C26.8622 20.6323 27.981 21.6266 29.5817 21.6266C30.6556 21.6266 31.6887 21.0529 32.1624 20.1423H32.2012V21.4878H33.81V15.8528C33.81 14.2133 32.5442 13.1639 30.5617 13.1639ZM34.5225 13.3109L37.4748 21.496C37.4748 21.5021 37.3258 21.986 37.3258 22.0002C37.0705 22.8373 36.652 23.166 35.8741 23.166C35.7332 23.166 35.4535 23.166 35.329 23.1354V24.4952C35.4515 24.5176 35.8741 24.534 36.013 24.534C37.7075 24.534 38.516 23.897 39.2143 21.9145L42.2768 13.3109H40.5046L38.4385 19.9647H38.4078L36.3396 13.3089L34.5225 13.3109ZM32.1399 17.7801V18.4253C32.1399 19.489 31.2212 20.2975 30.0493 20.2975C29.1468 20.2975 28.5568 19.832 28.5568 19.1154C28.5568 18.4171 29.1244 17.972 30.1268 17.9047L32.1399 17.7801Z" fill="black"/>
</svg>
