<svg width="40" height="32" viewBox="0 0 40 32" fill="none" xmlns="http://www.w3.org/2000/svg">
<path d="M25.3969 2.69587H14.5723V22.5091H25.3969V2.69587Z" fill="#FF5A00"/>
<path d="M15.2922 12.6025C15.2922 8.57704 17.1497 5.00429 20 2.69587C17.9023 1.01554 15.2562 0 12.3699 0C5.53243 0 0 5.63646 0 12.6025C0 19.5685 5.53243 25.205 12.3699 25.205C15.2562 25.205 17.9023 24.1895 20 22.5091C17.1457 20.2333 15.2922 16.628 15.2922 12.6025Z" fill="#EB001B"/>
<path d="M40 12.6025C40 19.5685 34.4676 25.205 27.6301 25.205C24.7438 25.205 22.0977 24.1895 20 22.5091C22.8863 20.1966 24.7078 16.628 24.7078 12.6025C24.7078 8.57704 22.8503 5.00429 20 2.69587C22.0937 1.01554 24.7398 0 27.6261 0C34.4676 0 40 5.67316 40 12.6025Z" fill="#F79E1B"/>
<path d="M7.25034 31.5797V29.4793C7.25034 28.6758 6.76996 28.1497 5.9453 28.1497C5.53297 28.1497 5.08461 28.2883 4.77637 28.7451C4.53617 28.3617 4.1919 28.1497 3.67549 28.1497C3.33121 28.1497 2.98693 28.2557 2.71472 28.6391V28.219H1.99414V31.5797H2.71472V29.724C2.71472 29.1285 3.02296 28.8471 3.50335 28.8471C3.98373 28.8471 4.22392 29.1611 4.22392 29.724V31.5797H4.9445V29.724C4.9445 29.1285 5.28878 28.8471 5.73313 28.8471C6.21352 28.8471 6.45371 29.1611 6.45371 29.724V31.5797H7.25034ZM17.9389 28.219H16.77V27.2035H16.0494V28.219H15.3969V28.8838H16.0494V30.4255C16.0494 31.1963 16.3576 31.649 17.1823 31.649C17.4905 31.649 17.8348 31.543 18.075 31.4043L17.8668 30.7721C17.6587 30.9108 17.4185 30.9475 17.2463 30.9475C16.9021 30.9475 16.766 30.7354 16.766 30.3888V28.8838H17.9349V28.219H17.9389ZM24.0558 28.1456C23.6435 28.1456 23.3672 28.3577 23.1951 28.635V28.2149H22.4745V31.5756H23.1951V29.6832C23.1951 29.1244 23.4353 28.8063 23.8836 28.8063C24.0198 28.8063 24.1919 28.843 24.332 28.8756L24.5402 28.1741C24.3961 28.1456 24.1919 28.1456 24.0558 28.1456ZM14.8124 28.4963C14.4681 28.2516 13.9877 28.1456 13.4713 28.1456C12.6467 28.1456 12.0982 28.5657 12.0982 29.2305C12.0982 29.7892 12.5106 30.1073 13.2311 30.2093L13.5754 30.246C13.9517 30.3153 14.1599 30.4214 14.1599 30.5968C14.1599 30.8415 13.8836 31.0168 13.4033 31.0168C12.9229 31.0168 12.5426 30.8415 12.3024 30.6661L11.9581 31.2248C12.3344 31.5063 12.8508 31.6449 13.3672 31.6449C14.328 31.6449 14.8804 31.1881 14.8804 30.5601C14.8804 29.9646 14.4321 29.6506 13.7475 29.5445L13.4033 29.5078C13.095 29.4711 12.8548 29.4018 12.8548 29.1938C12.8548 28.9491 13.095 28.8104 13.4753 28.8104C13.8877 28.8104 14.3 28.9858 14.5081 29.0918L14.8124 28.4963ZM33.9837 28.1456C33.5714 28.1456 33.2952 28.3577 33.123 28.635V28.2149H32.4025V31.5756H33.123V29.6832C33.123 29.1244 33.3632 28.8063 33.8116 28.8063C33.9477 28.8063 34.1198 28.843 34.2599 28.8756L34.4681 28.1823C34.328 28.1456 34.1238 28.1456 33.9837 28.1456ZM24.7764 29.8993C24.7764 30.9149 25.4649 31.649 26.5298 31.649C27.0101 31.649 27.3544 31.543 27.6987 31.2656L27.3544 30.6702C27.0782 30.8823 26.806 30.9842 26.4937 30.9842C25.9093 30.9842 25.4969 30.5641 25.4969 29.8993C25.4969 29.2672 25.9093 28.8471 26.4937 28.8145C26.802 28.8145 27.0782 28.9205 27.3544 29.1285L27.6987 28.533C27.3544 28.2516 27.0101 28.1497 26.5298 28.1497C25.4649 28.1456 24.7764 28.8838 24.7764 29.8993ZM31.4417 29.8993V28.219H30.7211V28.6391C30.4809 28.325 30.1366 28.1497 29.6883 28.1497C28.7595 28.1497 28.039 28.8838 28.039 29.8993C28.039 30.9149 28.7595 31.649 29.6883 31.649C30.1687 31.649 30.513 31.4736 30.7211 31.1596V31.5797H31.4417V29.8993ZM28.7956 29.8993C28.7956 29.3039 29.1719 28.8145 29.7924 28.8145C30.3768 28.8145 30.7892 29.2713 30.7892 29.8993C30.7892 30.4948 30.3768 30.9842 29.7924 30.9842C29.1759 30.9475 28.7956 30.4907 28.7956 29.8993ZM20.1727 28.1456C19.2119 28.1456 18.5234 28.8471 18.5234 29.8953C18.5234 30.9475 19.2119 31.6449 20.2087 31.6449C20.6891 31.6449 21.1695 31.5063 21.5498 31.1881L21.2055 30.662C20.9293 30.8741 20.585 31.0128 20.2447 31.0128C19.7964 31.0128 19.352 30.8007 19.2479 30.2093H21.6859C21.6859 30.1033 21.6859 30.0339 21.6859 29.9279C21.7179 28.8471 21.0974 28.1456 20.1727 28.1456ZM20.1727 28.7778C20.621 28.7778 20.9293 29.0592 20.9973 29.5812H19.28C19.348 29.1285 19.6563 28.7778 20.1727 28.7778ZM38.075 29.8993V26.8894H37.3544V28.6391C37.1142 28.325 36.77 28.1497 36.3216 28.1497C35.3929 28.1497 34.6723 28.8838 34.6723 29.8993C34.6723 30.9149 35.3929 31.649 36.3216 31.649C36.802 31.649 37.1463 31.4736 37.3544 31.1596V31.5797H38.075V29.8993ZM35.4289 29.8993C35.4289 29.3039 35.8052 28.8145 36.4257 28.8145C37.0101 28.8145 37.4225 29.2713 37.4225 29.8993C37.4225 30.4948 37.0101 30.9842 36.4257 30.9842C35.8052 30.9475 35.4289 30.4907 35.4289 29.8993ZM11.3056 29.8993V28.219H10.585V28.6391C10.3448 28.325 10.0005 28.1497 9.55219 28.1497C8.62344 28.1497 7.90287 28.8838 7.90287 29.8993C7.90287 30.9149 8.62344 31.649 9.55219 31.649C10.0326 31.649 10.3768 31.4736 10.585 31.1596V31.5797H11.3056V29.8993ZM8.62745 29.8993C8.62745 29.3039 9.00375 28.8145 9.62424 28.8145C10.2087 28.8145 10.621 29.2713 10.621 29.8993C10.621 30.4948 10.2087 30.9842 9.62424 30.9842C9.00375 30.9475 8.62745 30.4907 8.62745 29.8993Z" fill="black"/>
</svg>
