<svg width="26" height="17" viewBox="0 0 26 17" fill="none" xmlns="http://www.w3.org/2000/svg">
<path d="M16.3286 1.73325H9.36914V14.4717H16.3286V1.73325Z" fill="#FF5A00"/>
<path d="M9.8318 8.1025C9.8318 5.51442 11.026 3.2174 12.8586 1.73325C11.5099 0.65292 9.80864 0 7.95295 0C3.55695 0 0 3.62384 0 8.1025C0 12.5812 3.55695 16.205 7.95295 16.205C9.80864 16.205 11.5099 15.5521 12.8586 14.4717C11.0235 13.0086 9.8318 10.6906 9.8318 8.1025Z" fill="#EB001B"/>
<path d="M25.717 8.1025C25.717 12.5812 22.16 16.205 17.764 16.205C15.9083 16.205 14.2071 15.5521 12.8584 14.4717C14.7141 12.985 15.8852 10.6906 15.8852 8.1025C15.8852 5.51442 14.6909 3.2174 12.8584 1.73325C14.2045 0.65292 15.9057 0 17.7614 0C22.16 0 25.717 3.64744 25.717 8.1025Z" fill="#F79E1B"/>
</svg>
