<svg width="74" height="20" viewBox="0 0 74 20" fill="none" xmlns="http://www.w3.org/2000/svg">
<path d="M12.526 0.931128C11.5985 0.311021 10.3881 0.000216314 8.89496 0.000216314H3.11427C2.65653 0.000216314 2.40364 0.222849 2.3556 0.667684L0.00737105 15.003C-0.0170345 15.1438 0.0191872 15.2725 0.115705 15.3896C0.211671 15.5069 0.332373 15.5652 0.476929 15.5652H3.22272C3.70431 15.5652 3.96902 15.3431 4.01761 14.8977L4.66784 11.0329C4.69158 10.8456 4.77628 10.6934 4.92084 10.5761C5.06528 10.459 5.24595 10.3824 5.46273 10.3474C5.67951 10.3126 5.88392 10.295 6.07695 10.295C6.26944 10.295 6.49814 10.3069 6.76351 10.3302C7.02822 10.3535 7.19696 10.365 7.26929 10.365C9.34056 10.365 10.9663 9.79745 12.1468 8.66098C13.3266 7.52516 13.9172 5.95008 13.9172 3.93511C13.9172 2.55313 13.4531 1.55188 12.526 0.930805V0.931128ZM9.54552 5.23557C9.42471 6.05554 9.11196 6.59403 8.60618 6.85178C8.10029 7.10986 7.37773 7.2383 6.43851 7.2383L5.24617 7.27331L5.8605 3.51369C5.90843 3.25626 6.06491 3.12738 6.33006 3.12738H7.01673C7.9797 3.12738 8.67863 3.26238 9.11218 3.5313C9.54552 3.80087 9.69008 4.3691 9.54552 5.23557Z" fill="#003087"/>
<path d="M73.5299 0H70.8567C70.591 0 70.4346 0.128877 70.3869 0.386736L68.0384 15.0034L68.0022 15.0736C68.0022 15.1913 68.0504 15.3021 68.147 15.4075C68.2427 15.5128 68.3638 15.5655 68.5081 15.5655H70.893C71.3498 15.5655 71.6029 15.3434 71.6518 14.898L74 0.527317V0.492413C73.9999 0.164317 73.8429 0.000430988 73.5299 0.000430988V0Z" fill="#009CDE"/>
<path d="M41.2306 5.65764C41.2306 5.54079 41.1823 5.42932 41.0865 5.32418C40.9899 5.21882 40.8815 5.16577 40.7613 5.16577H37.9794C37.7139 5.16577 37.4972 5.28347 37.3289 5.51706L33.4993 10.9985L31.9096 5.72809C31.7886 5.3536 31.524 5.16577 31.1148 5.16577H28.4047C28.284 5.16577 28.1757 5.21861 28.0799 5.32418C27.9833 5.42932 27.9354 5.54101 27.9354 5.65764C27.9354 5.70479 28.1703 6.39556 28.6398 7.73071C29.1094 9.06629 29.6152 10.5069 30.1572 12.053C30.6992 13.5987 30.982 14.419 31.0062 14.5119C29.031 17.1358 28.0438 18.5412 28.0438 18.7283C28.0438 19.0331 28.2001 19.1852 28.5135 19.1852H31.2954C31.5602 19.1852 31.7769 19.0683 31.9458 18.834L41.1589 5.90347C41.2067 5.85708 41.2306 5.77545 41.2306 5.65753V5.65764Z" fill="#003087"/>
<path d="M67.1359 5.16577H64.39C64.0524 5.16577 63.8484 5.55239 63.7761 6.32554C63.149 5.38883 62.0057 4.91983 60.3434 4.91983C58.6093 4.91983 57.1338 5.55239 55.9177 6.81731C54.7012 8.08222 54.0933 9.57009 54.0933 11.2798C54.0933 12.6621 54.5087 13.763 55.3395 14.5825C56.1705 15.4029 57.2843 15.8123 58.6818 15.8123C59.3802 15.8123 60.0907 15.6715 60.8133 15.3907C61.5358 15.1096 62.1014 14.735 62.5116 14.2663C62.5116 14.2898 62.487 14.3949 62.4394 14.5822C62.3907 14.7699 62.367 14.9109 62.367 15.0038C62.367 15.3791 62.5231 15.5659 62.8367 15.5659H65.3298C65.7869 15.5659 66.0522 15.3438 66.1242 14.8985L67.6058 5.72788C67.6295 5.58719 67.5935 5.45864 67.4973 5.34136C67.4005 5.22451 67.2803 5.16577 67.1359 5.16577ZM62.4211 12.0879C61.8068 12.6735 61.0661 12.9662 60.1991 12.9662C59.5002 12.9662 58.9347 12.7791 58.5009 12.4041C58.0672 12.0301 57.8504 11.5147 57.8504 10.8581C57.8504 9.99205 58.1515 9.25939 58.7539 8.66216C59.3552 8.06482 60.1026 7.76626 60.9938 7.76626C61.6677 7.76626 62.2278 7.95947 62.6738 8.34577C63.119 8.7324 63.3425 9.2653 63.3425 9.9448C63.3423 10.788 63.0352 11.5026 62.4211 12.0879Z" fill="#009CDE"/>
<path d="M26.0926 5.16577H23.3467C23.009 5.16577 22.8047 5.55239 22.7324 6.32554C22.082 5.38883 20.9378 4.91983 19.3 4.91983C17.5658 4.91983 16.0903 5.55239 14.8741 6.81731C13.6576 8.08222 13.0496 9.57009 13.0496 11.2798C13.0496 12.6621 13.4652 13.763 14.2962 14.5825C15.1272 15.4029 16.2409 15.8123 17.6381 15.8123C18.3122 15.8123 19.0111 15.6715 19.7336 15.3907C20.4561 15.1096 21.0342 14.735 21.4678 14.2663C21.3712 14.5472 21.3232 14.7932 21.3232 15.0038C21.3232 15.3791 21.4797 15.5659 21.7929 15.5659H24.2858C24.7431 15.5659 25.0084 15.3438 25.0807 14.8985L26.5619 5.72788C26.5857 5.58719 26.5497 5.45864 26.4536 5.34136C26.3572 5.22451 26.2369 5.16577 26.0926 5.16577ZM21.3777 12.1053C20.7633 12.6799 20.0103 12.9662 19.1197 12.9662C18.4207 12.9662 17.8607 12.7791 17.4396 12.4041C17.0178 12.0301 16.8072 11.5147 16.8072 10.8581C16.8072 9.99205 17.1081 9.25939 17.7106 8.66216C18.3123 8.06482 19.059 7.76615 19.9506 7.76615C20.6246 7.76615 21.1846 7.95947 21.6307 8.34577C22.0759 8.7324 22.299 9.2653 22.299 9.9448C22.2989 10.8115 21.9919 11.532 21.3777 12.1053Z" fill="#003087"/>
<path d="M53.5692 0.931128C52.6418 0.311021 51.4318 0.000216314 49.9384 0.000216314H44.1937C43.7118 0.000216314 43.4467 0.222849 43.3989 0.667684L41.0504 15.003C41.026 15.1438 41.0622 15.2725 41.1589 15.3896C41.2544 15.5069 41.3754 15.5652 41.52 15.5652H44.4824C44.7714 15.5652 44.964 15.4131 45.0607 15.1085L45.711 11.0329C45.735 10.8456 45.8192 10.6934 45.964 10.5761C46.1086 10.459 46.289 10.3824 46.506 10.3474C46.7226 10.3126 46.927 10.295 47.1201 10.295C47.3127 10.295 47.5413 10.3069 47.8064 10.3302C48.0713 10.3535 48.2405 10.365 48.3122 10.365C50.3839 10.365 52.0094 9.79745 53.1898 8.66098C54.3701 7.52516 54.9601 5.95008 54.9601 3.93511C54.9603 2.55313 54.4963 1.55177 53.5692 0.930805V0.931128ZM49.8661 6.71109C49.3362 7.06239 48.5412 7.23798 47.4817 7.23798L46.3253 7.27321L46.9396 3.51347C46.9873 3.25615 47.1439 3.12706 47.4091 3.12706H48.0592C48.5892 3.12706 49.0106 3.15058 49.3242 3.1973C49.6368 3.24434 49.9384 3.3905 50.2274 3.63633C50.5166 3.88238 50.6609 4.2398 50.6609 4.70804C50.6609 5.69222 50.3956 6.35948 49.8661 6.71109Z" fill="#009CDE"/>
</svg>
