<svg width="24" height="24" viewBox="0 0 24 24" fill="none" xmlns="http://www.w3.org/2000/svg">
<path d="M23.5537 11.726C23.5532 11.5571 23.5493 11.3892 23.5417 11.222V1.6908L20.9067 4.32578C18.7501 1.68604 15.4694 0 11.7947 0C7.9706 0 4.57324 1.82534 2.42563 4.65217L6.74468 9.01664C7.16794 8.23384 7.76924 7.56149 8.49425 7.05368C9.24828 6.46525 10.3167 5.98414 11.7946 5.98414C11.9731 5.98414 12.1109 6.005 12.2122 6.04431C14.0433 6.18883 15.6306 7.1994 16.5652 8.66616L13.5079 11.7234C17.3803 11.7082 21.7549 11.6993 23.5534 11.7254" fill="#1C3AA9"/>
<path d="M11.726 0.000488281C11.5571 0.00104909 11.3892 0.00494671 11.222 0.0125176H1.6908L4.32578 2.64749C1.68604 4.80407 0 8.08479 0 11.7595C0 15.5836 1.82537 18.981 4.65217 21.1286L9.01664 16.8095C8.23384 16.3863 7.56149 15.785 7.05368 15.06C6.46528 14.3059 5.98414 13.2375 5.98414 11.7596C5.98414 11.5811 6.005 11.4433 6.04431 11.342C6.18883 9.51086 7.1994 7.92361 8.66616 6.98903L11.7234 10.0463C11.7082 6.1739 11.6993 1.79933 11.7254 0.000824687" fill="#4285F4"/>
<path d="M0.000427246 11.759C0.000988052 11.9279 0.00488568 12.0959 0.0124566 12.2631V21.7943L2.64743 19.1593C4.80401 21.799 8.08473 23.4851 11.7594 23.4851C15.5835 23.4851 18.9809 21.6597 21.1285 18.8329L16.8095 14.4684C16.3862 15.2512 15.7849 15.9236 15.0599 16.4314C14.3059 17.0198 13.2375 17.5009 11.7595 17.5009C11.581 17.5009 11.4432 17.4801 11.3419 17.4408C9.5108 17.2962 7.92355 16.2857 6.98897 14.8189L10.0462 11.7617C6.17384 11.7769 1.79927 11.7858 0.000764187 11.7597" fill="#ABABAB"/>
</svg>
