<svg width="59" height="24" viewBox="0 0 59 24" fill="none" xmlns="http://www.w3.org/2000/svg">
<path d="M27.6277 11.3261V18.1186H25.437V1.32007H31.1347C32.5217 1.32007 33.8357 1.83036 34.8597 2.78016C35.8826 3.65577 36.394 4.97088 36.394 6.35906C36.394 7.74723 35.8837 8.98814 34.8597 9.93795C33.8369 10.8878 32.5959 11.398 31.1347 11.398L27.6277 11.3261ZM27.6277 3.36466V9.20847H31.2808C32.0845 9.20847 32.8882 8.91508 33.3996 8.33287C34.5686 7.23808 34.5686 5.41154 33.4715 4.31561L33.3996 4.2414C32.8151 3.65691 32.0845 3.2916 31.2808 3.3658H27.6277V3.36466Z" fill="#5F6368"/>
<path d="M41.4325 6.28714C43.0399 6.28714 44.2808 6.72437 45.2306 7.60226C46.1804 8.47786 46.6177 9.64685 46.6177 11.1081V18.1209H44.5731V16.5135H44.5011C43.6255 17.8286 42.3823 18.4862 40.9223 18.4862C39.6813 18.4862 38.5843 18.1209 37.7087 17.3914C36.905 16.6608 36.3936 15.6379 36.3936 14.5431C36.3936 13.3742 36.8319 12.4266 37.7087 11.6949C38.5843 10.9642 39.8252 10.672 41.2876 10.672C42.6027 10.672 43.6255 10.8912 44.4281 11.4026V10.8923C44.4281 10.1617 44.137 9.43223 43.5525 8.99272C42.968 8.48243 42.2374 8.18904 41.4337 8.18904C40.1928 8.18904 39.243 8.69933 38.5854 9.72334L36.6858 8.55435C37.8537 7.01662 39.388 6.28714 41.4325 6.28714ZM38.6573 14.6128C38.6573 15.1973 38.9484 15.7076 39.388 15.9998C39.8982 16.3651 40.4827 16.5843 41.0672 16.5843C41.9428 16.5843 42.8207 16.219 43.4771 15.5626C44.2078 14.9039 44.5719 14.1025 44.5719 13.2246C43.9155 12.7143 42.9646 12.4209 41.7237 12.4209C40.848 12.4209 40.1163 12.6401 39.5329 13.0773C38.9484 13.4438 38.6573 13.9552 38.6573 14.6128Z" fill="#5F6368"/>
<path d="M58.4502 6.65245L51.2205 23.2307H49.0275L51.7308 17.4611L46.9829 6.72437H49.3209L52.7525 14.9769H52.8256L56.1853 6.72437H58.4502V6.65245Z" fill="#5F6368"/>
<path d="M18.9361 9.86604C18.9361 9.20734 18.8619 8.55093 18.79 7.89337H9.66064V11.6184H14.8458C14.6266 12.7874 13.9702 13.8822 12.9461 14.5397V16.9496H16.0867C17.9121 15.2703 18.9361 12.7862 18.9361 9.86604Z" fill="#4285F4"/>
<path d="M9.65939 19.2865C12.2885 19.2865 14.4792 18.4109 16.0877 16.9485L12.9472 14.5386C12.0716 15.1231 10.9745 15.4884 9.66167 15.4884C7.17756 15.4884 4.98685 13.8091 4.25737 11.4711H1.0415V13.9552C2.72079 17.2419 6.00857 19.2865 9.65939 19.2865Z" fill="#34A853"/>
<path d="M4.25472 11.4722C3.81634 10.3033 3.81634 8.98814 4.25472 7.74723V5.26313H1.04113C-0.347044 7.96642 -0.347044 11.18 1.04113 13.9552L4.25472 11.4722Z" fill="#FBBC04"/>
<path d="M9.65908 3.80303C11.0473 3.80303 12.3624 4.31333 13.3841 5.26313L16.1605 2.48792C14.407 0.881697 12.0701 -0.0681073 9.73214 0.00381299C6.07904 0.00381299 2.72162 2.04841 1.11426 5.33619L4.32784 7.81801C4.9854 5.48346 7.17612 3.80303 9.65908 3.80303Z" fill="#EA4335"/>
</svg>
