<svg width="100" height="44" viewBox="0 0 100 44" fill="none" xmlns="http://www.w3.org/2000/svg">
<path fill-rule="evenodd" clip-rule="evenodd" d="M21.6751 1.7694C10.6815 1.7694 1.7694 10.6815 1.7694 21.6751C1.7694 32.6687 10.6815 41.5808 21.6751 41.5808C32.6687 41.5808 41.5808 32.6687 41.5808 21.6751C41.5808 10.6815 32.6687 1.7694 21.6751 1.7694ZM0 21.6751C0 9.70428 9.70428 0 21.6751 0C33.646 0 43.3502 9.70428 43.3502 21.6751C43.3502 33.646 33.646 43.3502 21.6751 43.3502C9.70428 43.3502 0 33.646 0 21.6751Z" fill="black"/>
<path fill-rule="evenodd" clip-rule="evenodd" d="M24.3293 7.07762C17.7331 7.07762 12.3859 12.4249 12.3859 19.0211C12.3859 25.6172 17.7331 30.9645 24.3293 30.9645C30.9255 30.9645 36.2727 25.6172 36.2727 19.0211C36.2727 12.4249 30.9255 7.07762 24.3293 7.07762ZM10.6165 19.0211C10.6165 11.4477 16.7559 5.30823 24.3293 5.30823C31.9027 5.30823 38.0421 11.4477 38.0421 19.0211C38.0421 26.5944 31.9027 32.7339 24.3293 32.7339C16.7559 32.7339 10.6165 26.5944 10.6165 19.0211Z" fill="black"/>
<path fill-rule="evenodd" clip-rule="evenodd" d="M24.3293 3.53881C15.7787 3.53881 8.84706 10.4704 8.84706 19.021C8.84706 27.5716 15.7787 34.5033 24.3293 34.5033C32.8799 34.5033 39.8115 27.5716 39.8115 19.021C39.8115 10.4704 32.8799 3.53881 24.3293 3.53881ZM7.07767 19.021C7.07767 9.49323 14.8015 1.76941 24.3293 1.76941C33.8571 1.76941 41.5809 9.49323 41.5809 19.021C41.5809 28.5488 33.8571 36.2727 24.3293 36.2727C14.8015 36.2727 7.07767 28.5488 7.07767 19.021Z" fill="black"/>
<path d="M28.3501 13.7128V15.3583L25.0723 23.0021H22.2059L25.3377 15.7962H22.8959V17.2294H20.6532V13.7128H28.3501Z" fill="black"/>
<path d="M51.2372 8.73181H53.7586V18.5785H51.2372V8.73181Z" fill="black"/>
<path d="M59.0068 18.6979C58.2371 18.6979 57.5426 18.5387 56.9233 18.2202C56.304 17.9017 55.8174 17.4594 55.4636 16.8932C55.1185 16.327 54.946 15.6855 54.946 14.9689C54.946 14.2612 55.1185 13.6242 55.4636 13.058C55.8174 12.4918 56.2996 12.0539 56.91 11.7442C57.5293 11.4257 58.2282 11.2665 59.0068 11.2665C59.7853 11.2665 60.4842 11.4257 61.1035 11.7442C61.7228 12.0539 62.205 12.4918 62.55 13.058C62.895 13.6153 63.0675 14.2523 63.0675 14.9689C63.0675 15.6855 62.895 16.327 62.55 16.8932C62.205 17.4594 61.7228 17.9017 61.1035 18.2202C60.4842 18.5387 59.7853 18.6979 59.0068 18.6979ZM59.0068 16.6941C59.4491 16.6941 59.8119 16.5437 60.095 16.2429C60.3781 15.9333 60.5196 15.5086 60.5196 14.9689C60.5196 14.4381 60.3781 14.0223 60.095 13.7215C59.8119 13.4207 59.4491 13.2703 59.0068 13.2703C58.5644 13.2703 58.2017 13.4207 57.9186 13.7215C57.6355 14.0223 57.4939 14.4381 57.4939 14.9689C57.4939 15.5086 57.6355 15.9333 57.9186 16.2429C58.2017 16.5437 58.5644 16.6941 59.0068 16.6941Z" fill="black"/>
<path d="M69.1987 18.2866C68.9864 18.4193 68.7254 18.521 68.4158 18.5918C68.115 18.6626 67.792 18.6979 67.447 18.6979C66.5092 18.6979 65.7882 18.4679 65.2839 18.0079C64.7796 17.5478 64.5275 16.8622 64.5275 15.951V13.5357H63.4791V11.6513H64.5275V9.78018H67.0489V11.6513H68.6944V13.5357H67.0489V15.9244C67.0489 16.181 67.1152 16.3845 67.248 16.5349C67.3895 16.6764 67.5753 16.7472 67.8053 16.7472C68.0973 16.7472 68.3538 16.672 68.575 16.5216L69.1987 18.2866Z" fill="black"/>
<path d="M74.9916 18.2866C74.7793 18.4193 74.5183 18.521 74.2086 18.5918C73.9078 18.6626 73.5849 18.6979 73.2399 18.6979C72.3021 18.6979 71.5811 18.4679 71.0768 18.0079C70.5725 17.5478 70.3204 16.8622 70.3204 15.951V13.5357H69.272V11.6513H70.3204V9.78018H72.8418V11.6513H74.4873V13.5357H72.8418V15.9244C72.8418 16.181 72.9081 16.3845 73.0408 16.5349C73.1824 16.6764 73.3682 16.7472 73.5982 16.7472C73.8901 16.7472 74.1467 16.672 74.3679 16.5216L74.9916 18.2866Z" fill="black"/>
<path d="M79.3661 18.6979C78.5964 18.6979 77.9019 18.5387 77.2826 18.2202C76.6633 17.9017 76.1767 17.4594 75.8229 16.8932C75.4778 16.327 75.3053 15.6855 75.3053 14.9689C75.3053 14.2612 75.4778 13.6242 75.8229 13.058C76.1767 12.4918 76.6589 12.0539 77.2693 11.7442C77.8886 11.4257 78.5875 11.2665 79.3661 11.2665C80.1446 11.2665 80.8435 11.4257 81.4628 11.7442C82.0821 12.0539 82.5643 12.4918 82.9093 13.058C83.2543 13.6153 83.4268 14.2523 83.4268 14.9689C83.4268 15.6855 83.2543 16.327 82.9093 16.8932C82.5643 17.4594 82.0821 17.9017 81.4628 18.2202C80.8435 18.5387 80.1446 18.6979 79.3661 18.6979ZM79.3661 16.6941C79.8084 16.6941 80.1711 16.5437 80.4543 16.2429C80.7374 15.9333 80.8789 15.5086 80.8789 14.9689C80.8789 14.4381 80.7374 14.0223 80.4543 13.7215C80.1711 13.4207 79.8084 13.2703 79.3661 13.2703C78.9237 13.2703 78.561 13.4207 78.2779 13.7215C77.9948 14.0223 77.8532 14.4381 77.8532 14.9689C77.8532 15.5086 77.9948 15.9333 78.2779 16.2429C78.561 16.5437 78.9237 16.6941 79.3661 16.6941Z" fill="black"/>
<path d="M63.1541 27.3105L60.5929 34.5031H58.1511L56.7976 30.5883L55.3909 34.5031H52.9491L50.3879 27.3105H52.7766L54.2496 31.6632L55.7757 27.3105H57.9255L59.4118 31.703L60.9379 27.3105H63.1541Z" fill="black"/>
<path d="M63.9245 27.3105H66.4459V34.5031H63.9245V27.3105ZM65.1852 26.5143C64.7252 26.5143 64.3536 26.386 64.0705 26.1294C63.7874 25.8728 63.6458 25.5544 63.6458 25.1739C63.6458 24.7935 63.7874 24.475 64.0705 24.2185C64.3536 23.9619 64.7252 23.8336 65.1852 23.8336C65.6453 23.8336 66.0168 23.9575 66.2999 24.2052C66.583 24.4441 66.7246 24.7537 66.7246 25.1341C66.7246 25.5322 66.583 25.864 66.2999 26.1294C66.0168 26.386 65.6453 26.5143 65.1852 26.5143Z" fill="black"/>
<path d="M72.769 27.1911C73.6625 27.1911 74.3791 27.4565 74.9188 27.9873C75.4673 28.5181 75.7416 29.3188 75.7416 30.3892V34.5031H73.2202V30.8006C73.2202 29.8186 72.8265 29.3276 72.0391 29.3276C71.6056 29.3276 71.2562 29.4691 70.9907 29.7523C70.7342 30.0354 70.6059 30.46 70.6059 31.0262V34.5031H68.0845V27.3105H70.4865V28.0934C70.7696 27.8015 71.1058 27.5803 71.495 27.4299C71.8843 27.2707 72.3089 27.1911 72.769 27.1911Z" fill="black"/>
<path d="M82.0091 27.1911C82.9026 27.1911 83.6192 27.4565 84.1589 27.9873C84.7074 28.5181 84.9817 29.3188 84.9817 30.3892V34.5031H82.4603V30.8006C82.4603 29.8186 82.0666 29.3276 81.2792 29.3276C80.8457 29.3276 80.4962 29.4691 80.2308 29.7523C79.9743 30.0354 79.846 30.46 79.846 31.0262V34.5031H77.3246V27.3105H79.7266V28.0934C80.0097 27.8015 80.3458 27.5803 80.7351 27.4299C81.1244 27.2707 81.549 27.1911 82.0091 27.1911Z" fill="black"/>
<path d="M94.0202 30.9201C94.0202 30.9378 94.0069 31.1457 93.9804 31.5438H88.7518C88.858 31.9153 89.0615 32.2029 89.3623 32.4063C89.6719 32.601 90.0568 32.6983 90.5168 32.6983C90.8618 32.6983 91.1582 32.6496 91.4059 32.5523C91.6625 32.455 91.9191 32.2958 92.1756 32.0746L93.5027 33.4547C92.8037 34.2333 91.7819 34.6225 90.4372 34.6225C89.5967 34.6225 88.858 34.4633 88.221 34.1448C87.584 33.8263 87.0886 33.3839 86.7347 32.8177C86.3897 32.2515 86.2172 31.6101 86.2172 30.8935C86.2172 30.1858 86.3853 29.5532 86.7214 28.9958C87.0665 28.4296 87.5398 27.9873 88.1414 27.6688C88.743 27.3503 89.4198 27.1911 90.1718 27.1911C90.8884 27.1911 91.5386 27.3414 92.1225 27.6422C92.7064 27.9342 93.1665 28.3633 93.5027 28.9295C93.8477 29.4868 94.0202 30.1504 94.0202 30.9201ZM90.185 28.9826C89.7958 28.9826 89.4684 29.0932 89.203 29.3143C88.9465 29.5355 88.7828 29.8363 88.712 30.2167H91.6581C91.5873 29.8363 91.4192 29.5355 91.1538 29.3143C90.8972 29.0932 90.5743 28.9826 90.185 28.9826Z" fill="black"/>
<path d="M97.5847 28.1731C97.8412 27.8457 98.173 27.6024 98.58 27.4432C98.9958 27.2751 99.4691 27.1911 99.9999 27.1911V29.4603C99.7699 29.4338 99.5797 29.4205 99.4293 29.4205C98.8896 29.4205 98.465 29.5665 98.1553 29.8584C97.8545 30.1504 97.7041 30.5971 97.7041 31.1987V34.5031H95.1827V27.3105H97.5847V28.1731Z" fill="black"/>
</svg>
