<svg width="49" height="16" viewBox="0 0 49 16" fill="none" xmlns="http://www.w3.org/2000/svg">
<path d="M21.1336 15.552H17.1557L19.6418 0.273013H23.6201L21.1336 15.552ZM13.8092 0.273013L10.0169 10.782L9.56813 8.519L9.56854 8.51981L8.23004 1.64871C8.23004 1.64871 8.06819 0.273013 6.34306 0.273013H0.0735665L0 0.531722C0 0.531722 1.91722 0.930615 4.161 2.27811L7.61698 15.5524H11.7616L18.0904 0.273013H13.8092ZM45.0974 15.552H48.75L45.5654 0.272605H42.3677C40.8911 0.272605 40.5314 1.41125 40.5314 1.41125L34.5987 15.552H38.7454L39.5746 13.2824H44.6315L45.0974 15.552ZM40.7202 10.1473L42.8103 4.42952L43.9862 10.1473H40.7202ZM34.9097 3.94725L35.4774 0.666184C35.4774 0.666184 33.7257 0 31.8996 0C29.9256 0 25.2378 0.862771 25.2378 5.0581C25.2378 9.00535 30.7397 9.0544 30.7397 11.1277C30.7397 13.2011 25.8046 12.8296 24.176 11.5221L23.5846 14.9528C23.5846 14.9528 25.3608 15.8156 28.0746 15.8156C30.7892 15.8156 34.8844 14.41 34.8844 10.5846C34.8844 6.61199 29.333 6.24212 29.333 4.51494C29.3334 2.78735 33.2075 3.00928 34.9097 3.94725Z" fill="#2566AF"/>
<path d="M9.56854 8.5194L8.23004 1.64829C8.23004 1.64829 8.06819 0.272603 6.34306 0.272603H0.0735665L0 0.531311C0 0.531311 3.01336 1.15581 5.90371 3.49563C8.66735 5.73205 9.56854 8.5194 9.56854 8.5194Z" fill="#E6A540"/>
</svg>
