<svg width="63" height="27" viewBox="0 0 63 27" fill="none" xmlns="http://www.w3.org/2000/svg">
<path fill-rule="evenodd" clip-rule="evenodd" d="M13.5 1.10204C6.6528 1.10204 1.10204 6.6528 1.10204 13.5C1.10204 20.3472 6.6528 25.898 13.5 25.898C20.3472 25.898 25.898 20.3472 25.898 13.5C25.898 6.6528 20.3472 1.10204 13.5 1.10204ZM0 13.5C0 6.04416 6.04416 0 13.5 0C20.9558 0 27 6.04416 27 13.5C27 20.9558 20.9558 27 13.5 27C6.04416 27 0 20.9558 0 13.5Z" fill="black"/>
<path fill-rule="evenodd" clip-rule="evenodd" d="M15.1531 4.40819C11.0447 4.40819 7.71428 7.73865 7.71428 11.847C7.71428 15.9553 11.0447 19.2857 15.1531 19.2857C19.2614 19.2857 22.5918 15.9553 22.5918 11.847C22.5918 7.73865 19.2614 4.40819 15.1531 4.40819ZM6.61224 11.847C6.61224 7.13001 10.4361 3.30615 15.1531 3.30615C19.87 3.30615 23.6939 7.13001 23.6939 11.847C23.6939 16.5639 19.87 20.3878 15.1531 20.3878C10.4361 20.3878 6.61224 16.5639 6.61224 11.847Z" fill="black"/>
<path fill-rule="evenodd" clip-rule="evenodd" d="M15.153 2.20409C9.82744 2.20409 5.51018 6.52135 5.51018 11.8469C5.51018 17.1726 9.82744 21.4898 15.153 21.4898C20.4786 21.4898 24.7959 17.1726 24.7959 11.8469C24.7959 6.52135 20.4786 2.20409 15.153 2.20409ZM4.40814 11.8469C4.40814 5.91271 9.2188 1.10205 15.153 1.10205C21.0873 1.10205 25.8979 5.91271 25.8979 11.8469C25.8979 17.7812 21.0873 22.5918 15.153 22.5918C9.2188 22.5918 4.40814 17.7812 4.40814 11.8469Z" fill="black"/>
<path d="M17.6575 8.54077V9.56567L15.6159 14.3265H13.8306L15.7812 9.83842H14.2604V10.7311H12.8636V8.54077H17.6575Z" fill="black"/>
<path d="M31.9123 5.4386H33.4827V11.5715H31.9123V5.4386Z" fill="black"/>
<path d="M36.7515 11.6458C36.2721 11.6458 35.8395 11.5467 35.4538 11.3483C35.0681 11.1499 34.7651 10.8744 34.5446 10.5218C34.3297 10.1691 34.2223 9.76962 34.2223 9.32329C34.2223 8.88248 34.3297 8.48574 34.5446 8.13309C34.7651 7.78044 35.0654 7.50768 35.4456 7.31482C35.8313 7.11646 36.2666 7.01727 36.7515 7.01727C37.2364 7.01727 37.6717 7.11646 38.0574 7.31482C38.4431 7.50768 38.7434 7.78044 38.9583 8.13309C39.1732 8.48023 39.2807 8.87697 39.2807 9.32329C39.2807 9.76962 39.1732 10.1691 38.9583 10.5218C38.7434 10.8744 38.4431 11.1499 38.0574 11.3483C37.6717 11.5467 37.2364 11.6458 36.7515 11.6458ZM36.7515 10.3978C37.027 10.3978 37.2529 10.3041 37.4292 10.1168C37.6056 9.9239 37.6937 9.65942 37.6937 9.32329C37.6937 8.99268 37.6056 8.7337 37.4292 8.54635C37.2529 8.35901 37.027 8.26533 36.7515 8.26533C36.476 8.26533 36.2501 8.35901 36.0737 8.54635C35.8974 8.7337 35.8092 8.99268 35.8092 9.32329C35.8092 9.65942 35.8974 9.9239 36.0737 10.1168C36.2501 10.3041 36.476 10.3978 36.7515 10.3978Z" fill="black"/>
<path d="M43.0994 11.3896C42.9671 11.4723 42.8046 11.5356 42.6117 11.5797C42.4244 11.6238 42.2232 11.6458 42.0083 11.6458C41.4243 11.6458 40.9752 11.5026 40.6611 11.216C40.347 10.9295 40.19 10.5025 40.19 9.93493V8.43064H39.537V7.25697H40.19V6.09156H41.7604V7.25697H42.7853V8.43064H41.7604V9.9184C41.7604 10.0782 41.8017 10.2049 41.8844 10.2986C41.9725 10.3868 42.0882 10.4308 42.2315 10.4308C42.4133 10.4308 42.5731 10.384 42.7109 10.2903L43.0994 11.3896Z" fill="black"/>
<path d="M46.7074 11.3896C46.5751 11.4723 46.4126 11.5356 46.2197 11.5797C46.0324 11.6238 45.8312 11.6458 45.6163 11.6458C45.0323 11.6458 44.5832 11.5026 44.2691 11.216C43.955 10.9295 43.798 10.5025 43.798 9.93493V8.43064H43.145V7.25697H43.798V6.09156H45.3684V7.25697H46.3933V8.43064H45.3684V9.9184C45.3684 10.0782 45.4097 10.2049 45.4924 10.2986C45.5805 10.3868 45.6962 10.4308 45.8395 10.4308C46.0213 10.4308 46.1811 10.384 46.3189 10.2903L46.7074 11.3896Z" fill="black"/>
<path d="M49.4319 11.6458C48.9526 11.6458 48.52 11.5467 48.1343 11.3483C47.7486 11.1499 47.4455 10.8744 47.2251 10.5218C47.0102 10.1691 46.9028 9.76962 46.9028 9.32329C46.9028 8.88248 47.0102 8.48574 47.2251 8.13309C47.4455 7.78044 47.7458 7.50768 48.126 7.31482C48.5117 7.11646 48.947 7.01727 49.4319 7.01727C49.9168 7.01727 50.3522 7.11646 50.7379 7.31482C51.1236 7.50768 51.4239 7.78044 51.6388 8.13309C51.8537 8.48023 51.9611 8.87697 51.9611 9.32329C51.9611 9.76962 51.8537 10.1691 51.6388 10.5218C51.4239 10.8744 51.1236 11.1499 50.7379 11.3483C50.3522 11.5467 49.9168 11.6458 49.4319 11.6458ZM49.4319 10.3978C49.7075 10.3978 49.9334 10.3041 50.1097 10.1168C50.286 9.9239 50.3742 9.65942 50.3742 9.32329C50.3742 8.99268 50.286 8.7337 50.1097 8.54635C49.9334 8.35901 49.7075 8.26533 49.4319 8.26533C49.1564 8.26533 48.9305 8.35901 48.7542 8.54635C48.5779 8.7337 48.4897 8.99268 48.4897 9.32329C48.4897 9.65942 48.5779 9.9239 48.7542 10.1168C48.9305 10.3041 49.1564 10.3978 49.4319 10.3978Z" fill="black"/>
<path d="M39.3346 17.01L37.7394 21.4898H36.2186L35.3755 19.0516L34.4994 21.4898H32.9786L31.3834 17.01H32.8711L33.7886 19.721L34.7391 17.01H36.0781L37.0038 19.7458L37.9543 17.01H39.3346Z" fill="black"/>
<path d="M39.8144 17.01H41.3848V21.4898H39.8144V17.01ZM40.5996 16.5141C40.3131 16.5141 40.0817 16.4342 39.9053 16.2744C39.729 16.1146 39.6409 15.9163 39.6409 15.6793C39.6409 15.4424 39.729 15.244 39.9053 15.0842C40.0817 14.9244 40.3131 14.8445 40.5996 14.8445C40.8862 14.8445 41.1176 14.9217 41.2939 15.0759C41.4702 15.2247 41.5584 15.4176 41.5584 15.6545C41.5584 15.9025 41.4702 16.1091 41.2939 16.2744C41.1176 16.4342 40.8862 16.5141 40.5996 16.5141Z" fill="black"/>
<path d="M45.3231 16.9356C45.8796 16.9356 46.3259 17.1009 46.662 17.4316C47.0037 17.7622 47.1745 18.2608 47.1745 18.9276V21.4898H45.6041V19.1838C45.6041 18.5722 45.3589 18.2664 44.8685 18.2664C44.5985 18.2664 44.3808 18.3545 44.2155 18.5308C44.0557 18.7072 43.9758 18.9717 43.9758 19.3243V21.4898H42.4054V17.01H43.9014V17.4977C44.0778 17.3158 44.2871 17.1781 44.5296 17.0844C44.772 16.9852 45.0365 16.9356 45.3231 16.9356Z" fill="black"/>
<path d="M51.0781 16.9356C51.6346 16.9356 52.081 17.1009 52.4171 17.4316C52.7587 17.7622 52.9295 18.2608 52.9295 18.9276V21.4898H51.3591V19.1838C51.3591 18.5722 51.1139 18.2664 50.6235 18.2664C50.3535 18.2664 50.1359 18.3545 49.9705 18.5308C49.8108 18.7072 49.7309 18.9717 49.7309 19.3243V21.4898H48.1604V17.01H49.6565V17.4977C49.8328 17.3158 50.0422 17.1781 50.2846 17.0844C50.5271 16.9852 50.7916 16.9356 51.0781 16.9356Z" fill="black"/>
<path d="M58.559 19.2582C58.559 19.2692 58.5508 19.3987 58.5342 19.6467H55.2777C55.3438 19.8781 55.4706 20.0572 55.6579 20.1839C55.8508 20.3051 56.0905 20.3657 56.377 20.3657C56.5919 20.3657 56.7765 20.3354 56.9308 20.2748C57.0906 20.2142 57.2504 20.115 57.4102 19.9773L58.2367 20.8369C57.8014 21.3218 57.165 21.5642 56.3274 21.5642C55.8039 21.5642 55.3438 21.465 54.9471 21.2667C54.5504 21.0683 54.2418 20.7928 54.0214 20.4401C53.8065 20.0875 53.699 19.688 53.699 19.2417C53.699 18.8008 53.8037 18.4069 54.0131 18.0597C54.228 17.7071 54.5228 17.4316 54.8975 17.2332C55.2722 17.0348 55.6937 16.9356 56.1621 16.9356C56.6084 16.9356 57.0134 17.0293 57.3771 17.2167C57.7408 17.3985 58.0273 17.6657 58.2367 18.0184C58.4516 18.3655 58.559 18.7788 58.559 19.2582ZM56.1704 18.0515C55.9279 18.0515 55.724 18.1203 55.5587 18.2581C55.3989 18.3958 55.297 18.5832 55.2529 18.8201H57.0878C57.0437 18.5832 56.939 18.3958 56.7737 18.2581C56.6139 18.1203 56.4128 18.0515 56.1704 18.0515Z" fill="black"/>
<path d="M60.7791 17.5473C60.9389 17.3434 61.1455 17.1919 61.399 17.0927C61.658 16.988 61.9528 16.9356 62.2834 16.9356V18.349C62.1401 18.3325 62.0217 18.3242 61.928 18.3242C61.5919 18.3242 61.3274 18.4151 61.1345 18.597C60.9472 18.7788 60.8535 19.0571 60.8535 19.4318V21.4898H59.2831V17.01H60.7791V17.5473Z" fill="black"/>
</svg>
